<mxfile host="app.diagrams.net" modified="2023-09-22T16:17:59.504Z" agent="Mozilla/5.0 (Windows NT 10.0; Win64; x64; rv:109.0) Gecko/20100101 Firefox/117.0" version="21.7.1" etag="jS4kD1HSaDy62ukXYfxJ" type="github">
  <diagram name="PÃ¡gina-1" id="NKJdWtvHlExJPTicX1RP">
    <mxGraphModel>
      <root>
        <mxCell id="0" />
        <mxCell id="1" parent="0" />
      </root>
    </mxGraphModel>
  </diagram>
</mxfile>
